<svg width="202" height="46" xmlns="http://www.w3.org/2000/svg">
  <g fill="currentcolor" fill-rule="evenodd">
    <path d="M57.583 32.014c.49-.177.89-.418 1.2-.723.31-.305.563-.688.759-1.148.195-.46.332-.949.41-1.467a11.99 11.99 0 00.115-1.76v-.906h-1.173v1.104c0 .67-.044 1.242-.133 1.716-.088.475-.24.903-.453 1.286-.214.382-.522.67-.924.86-.403.192-.902.287-1.5.287-.502 0-.94-.064-1.317-.193a2.497 2.497 0 01-.93-.54 2.52 2.52 0 01-.586-.894 4.946 4.946 0 01-.31-1.187c-.06-.426-.088-.923-.088-1.49v-8.1c0-.69.044-1.281.132-1.77.089-.49.247-.937.476-1.341.229-.405.56-.708.996-.91.435-.203.978-.304 1.627-.304 1.136 0 1.922.34 2.357 1.02.435.681.653 1.72.653 3.118v.938h1.173v-.927c0-.81-.07-1.518-.21-2.124a4.804 4.804 0 00-.68-1.612 2.926 2.926 0 00-1.295-1.059c-.55-.24-1.216-.359-1.998-.359-.694 0-1.3.09-1.82.27-.52.181-.949.427-1.285.74a3.51 3.51 0 00-.813 1.176c-.206.47-.352.97-.437 1.5-.085.53-.127 1.126-.127 1.788v7.758c0 .655.039 1.241.116 1.76.078.519.218 1.02.42 1.501.203.482.469.883.797 1.203.329.32.758.576 1.29.767.531.191 1.15.287 1.86.287.641 0 1.207-.089 1.698-.265zm14.844-.74c.34-.308.615-.696.825-1.164.21-.467.358-.962.443-1.484.084-.522.127-1.11.127-1.766v-8.023c0-.809-.076-1.524-.227-2.146a4.892 4.892 0 00-.736-1.66c-.34-.486-.808-.858-1.406-1.115-.597-.258-1.32-.387-2.169-.387-.686 0-1.289.087-1.81.26-.52.173-.95.41-1.294.712a3.506 3.506 0 00-.841 1.13c-.218.453-.371.939-.46 1.457a10.47 10.47 0 00-.132 1.75v7.989c0 .655.042 1.246.127 1.771.085.527.232 1.025.442 1.496.21.47.484.862.82 1.175.335.313.769.56 1.3.74.531.18 1.147.27 1.848.27.701 0 1.315-.09 1.843-.27.527-.18.96-.425 1.3-.734zm-5.782-1.17a3.82 3.82 0 01-.504-1.29 8.81 8.81 0 01-.144-1.71V18.66c0-.662.048-1.23.144-1.705.096-.475.264-.901.504-1.28.24-.38.579-.664 1.018-.855.439-.192.98-.287 1.621-.287.642 0 1.183.095 1.622.287.438.191.778.476 1.018.855s.407.805.503 1.28a8.75 8.75 0 01.144 1.705v8.442c0 .662-.05 1.232-.15 1.71-.099.479-.267.91-.503 1.292a2.208 2.208 0 01-1.012.866c-.44.195-.98.292-1.622.292-.642 0-1.182-.097-1.621-.292a2.239 2.239 0 01-1.018-.866zm13.538 1.932V16.553l6.231 15.483h.974V13.739h-1.096v15.45l-6.22-15.45h-.984v18.297h1.095zm19.526-.79c.741-.68 1.112-1.682 1.112-3.006 0-.898-.241-1.75-.725-2.555-.483-.805-1.149-1.628-1.997-2.466l-3.31-3.256c-.486-.493-.833-.958-1.04-1.396a3.179 3.179 0 01-.31-1.374c0-.89.266-1.554.797-1.992.531-.437 1.244-.664 2.136-.678h.111c1.018 0 1.758.309 2.219.927.461.617.75 1.589.869 2.913l1.04-.243c-.103-1.655-.51-2.834-1.217-3.537-.709-.702-1.716-1.054-3.022-1.054h-.033c-1.225.008-2.2.337-2.927.988-.727.651-1.09 1.573-1.09 2.765 0 1.258.531 2.416 1.593 3.476l3.354 3.332c.833.825 1.44 1.545 1.82 2.163.38.618.57 1.302.57 2.053 0 1.964-.977 2.946-2.933 2.946-.464 0-.876-.066-1.234-.198a2.562 2.562 0 01-.89-.535 2.91 2.91 0 01-.61-.872c-.169-.357-.3-.727-.392-1.11a12.737 12.737 0 01-.238-1.357l-1.085.342c.266 3.164 1.745 4.746 4.438 4.746 1.255 0 2.253-.34 2.994-1.021zm9.112.79V14.72h3.807v-.982h-8.931v.982h3.884v17.315h1.24zm14.009 0v-.971h-5.169V23.02h4.195v-.96h-4.195V14.72h5.113v-.982h-6.352v18.297h6.408zm11.551 0v-.971h-5.544V13.739h-1.24v18.297h6.784zm10.722 0v-.971h-5.544V13.739h-1.24v18.297h6.784zm7.546-16.807l2.214 10.837h-4.405l2.191-10.837zm-3.353 16.807l.985-5.054h4.759l.951 5.054h1.24l-3.885-18.297h-1.416l-3.852 18.297h1.218zm15.901 0V14.72h3.807v-.982h-8.931v.982h3.884v17.315h1.24zm7.645 0h1.229V13.739h-1.229v18.297zm14.197-.761a3.48 3.48 0 00.825-1.165c.21-.467.358-.962.443-1.484.084-.522.127-1.11.127-1.766v-8.023c0-.809-.076-1.524-.227-2.146a4.889 4.889 0 00-.736-1.66c-.34-.486-.808-.858-1.406-1.115-.597-.258-1.32-.387-2.169-.387-.686 0-1.289.087-1.81.26-.52.173-.951.41-1.294.712a3.506 3.506 0 00-.841 1.13c-.218.453-.37.939-.46 1.457a10.452 10.452 0 00-.132 1.75v7.989c0 .655.042 1.246.127 1.771.085.527.232 1.025.443 1.496.21.47.483.862.819 1.175.335.313.769.56 1.3.74.531.18 1.147.27 1.848.27.701 0 1.315-.09 1.843-.27.527-.18.961-.425 1.3-.734zm-5.782-1.17a3.816 3.816 0 01-.504-1.291 8.824 8.824 0 01-.144-1.71V18.66c0-.662.048-1.23.144-1.705a3.76 3.76 0 01.504-1.28c.24-.38.579-.664 1.018-.855.439-.192.98-.287 1.621-.287.642 0 1.183.095 1.622.287.438.191.778.476 1.018.855s.407.805.503 1.28a8.75 8.75 0 01.144 1.705v8.442c0 .662-.05 1.232-.15 1.71-.099.479-.267.91-.503 1.292a2.21 2.21 0 01-1.012.866c-.44.195-.98.292-1.622.292-.642 0-1.182-.097-1.621-.292a2.239 2.239 0 01-1.018-.866zm13.538 1.93V16.554l6.231 15.483H202V13.739h-1.096v15.45l-6.22-15.45h-.984v18.297h1.095z"/>
    <path d="M57.583 32.014c.49-.177.89-.418 1.2-.723.31-.305.563-.688.759-1.148.195-.46.332-.949.41-1.467a11.99 11.99 0 00.115-1.76v-.906h-1.173v1.104c0 .67-.044 1.242-.133 1.716-.088.475-.24.903-.453 1.286-.214.382-.522.67-.924.86-.403.192-.902.287-1.5.287-.502 0-.94-.064-1.317-.193a2.497 2.497 0 01-.93-.54 2.52 2.52 0 01-.586-.894 4.946 4.946 0 01-.31-1.187c-.06-.426-.088-.923-.088-1.49v-8.1c0-.69.044-1.281.132-1.77.089-.49.247-.937.476-1.341.229-.405.56-.708.996-.91.435-.203.978-.304 1.627-.304 1.136 0 1.922.34 2.357 1.02.435.681.653 1.72.653 3.118v.938h1.173v-.927c0-.81-.07-1.518-.21-2.124a4.804 4.804 0 00-.68-1.612 2.926 2.926 0 00-1.295-1.059c-.55-.24-1.216-.359-1.998-.359-.694 0-1.3.09-1.82.27-.52.181-.949.427-1.285.74a3.51 3.51 0 00-.813 1.176c-.206.47-.352.97-.437 1.5-.085.53-.127 1.126-.127 1.788v7.758c0 .655.039 1.241.116 1.76.078.519.218 1.02.42 1.501.203.482.469.883.797 1.203.329.32.758.576 1.29.767.531.191 1.15.287 1.86.287.641 0 1.207-.089 1.698-.265zm14.844-.74c.34-.308.615-.696.825-1.164.21-.467.358-.962.443-1.484.084-.522.127-1.11.127-1.766v-8.023c0-.809-.076-1.524-.227-2.146a4.892 4.892 0 00-.736-1.66c-.34-.486-.808-.858-1.406-1.115-.597-.258-1.32-.387-2.169-.387-.686 0-1.289.087-1.81.26-.52.173-.95.41-1.294.712a3.506 3.506 0 00-.841 1.13c-.218.453-.371.939-.46 1.457a10.47 10.47 0 00-.132 1.75v7.989c0 .655.042 1.246.127 1.771.085.527.232 1.025.442 1.496.21.47.484.862.82 1.175.335.313.769.56 1.3.74.531.18 1.147.27 1.848.27.701 0 1.315-.09 1.843-.27.527-.18.96-.425 1.3-.734zm-5.782-1.17a3.82 3.82 0 01-.504-1.29 8.81 8.81 0 01-.144-1.71V18.66c0-.662.048-1.23.144-1.705.096-.475.264-.901.504-1.28.24-.38.579-.664 1.018-.855.439-.192.98-.287 1.621-.287.642 0 1.183.095 1.622.287.438.191.778.476 1.018.855s.407.805.503 1.28a8.75 8.75 0 01.144 1.705v8.442c0 .662-.05 1.232-.15 1.71-.099.479-.267.91-.503 1.292a2.208 2.208 0 01-1.012.866c-.44.195-.98.292-1.622.292-.642 0-1.182-.097-1.621-.292a2.239 2.239 0 01-1.018-.866zm13.538 1.932V16.553l6.231 15.483h.974V13.739h-1.096v15.45l-6.22-15.45h-.984v18.297h1.095zm19.526-.79c.741-.68 1.112-1.682 1.112-3.006 0-.898-.241-1.75-.725-2.555-.483-.805-1.149-1.628-1.997-2.466l-3.31-3.256c-.486-.493-.833-.958-1.04-1.396a3.179 3.179 0 01-.31-1.374c0-.89.266-1.554.797-1.992.531-.437 1.244-.664 2.136-.678h.111c1.018 0 1.758.309 2.219.927.461.617.75 1.589.869 2.913l1.04-.243c-.103-1.655-.51-2.834-1.217-3.537-.709-.702-1.716-1.054-3.022-1.054h-.033c-1.225.008-2.2.337-2.927.988-.727.651-1.09 1.573-1.09 2.765 0 1.258.531 2.416 1.593 3.476l3.354 3.332c.833.825 1.44 1.545 1.82 2.163.38.618.57 1.302.57 2.053 0 1.964-.977 2.946-2.933 2.946-.464 0-.876-.066-1.234-.198a2.562 2.562 0 01-.89-.535 2.91 2.91 0 01-.61-.872c-.169-.357-.3-.727-.392-1.11a12.737 12.737 0 01-.238-1.357l-1.085.342c.266 3.164 1.745 4.746 4.438 4.746 1.255 0 2.253-.34 2.994-1.021zm9.112.79V14.72h3.807v-.982h-8.931v.982h3.884v17.315h1.24zm14.009 0v-.971h-5.169V23.02h4.195v-.96h-4.195V14.72h5.113v-.982h-6.352v18.297h6.408zm11.551 0v-.971h-5.544V13.739h-1.24v18.297h6.784zm10.722 0v-.971h-5.544V13.739h-1.24v18.297h6.784zm7.546-16.807l2.214 10.837h-4.405l2.191-10.837zm-3.353 16.807l.985-5.054h4.759l.951 5.054h1.24l-3.885-18.297h-1.416l-3.852 18.297h1.218zm15.901 0V14.72h3.807v-.982h-8.931v.982h3.884v17.315h1.24zm7.645 0h1.229V13.739h-1.229v18.297zm14.197-.761a3.48 3.48 0 00.825-1.165c.21-.467.358-.962.443-1.484.084-.522.127-1.11.127-1.766v-8.023c0-.809-.076-1.524-.227-2.146a4.889 4.889 0 00-.736-1.66c-.34-.486-.808-.858-1.406-1.115-.597-.258-1.32-.387-2.169-.387-.686 0-1.289.087-1.81.26-.52.173-.951.41-1.294.712a3.506 3.506 0 00-.841 1.13c-.218.453-.37.939-.46 1.457a10.452 10.452 0 00-.132 1.75v7.989c0 .655.042 1.246.127 1.771.085.527.232 1.025.443 1.496.21.47.483.862.819 1.175.335.313.769.56 1.3.74.531.18 1.147.27 1.848.27.701 0 1.315-.09 1.843-.27.527-.18.961-.425 1.3-.734zm-5.782-1.17a3.816 3.816 0 01-.504-1.291 8.824 8.824 0 01-.144-1.71V18.66c0-.662.048-1.23.144-1.705a3.76 3.76 0 01.504-1.28c.24-.38.579-.664 1.018-.855.439-.192.98-.287 1.621-.287.642 0 1.183.095 1.622.287.438.191.778.476 1.018.855s.407.805.503 1.28a8.75 8.75 0 01.144 1.705v8.442c0 .662-.05 1.232-.15 1.71-.099.479-.267.91-.503 1.292a2.21 2.21 0 01-1.012.866c-.44.195-.98.292-1.622.292-.642 0-1.182-.097-1.621-.292a2.239 2.239 0 01-1.018-.866zm13.538 1.93V16.554l6.231 15.483H202V13.739h-1.096v15.45l-6.22-15.45h-.984v18.297h1.095z"/>
    <path d="M57.583 32.014c.49-.177.89-.418 1.2-.723.31-.305.563-.688.759-1.148.195-.46.332-.949.41-1.467a11.99 11.99 0 00.115-1.76v-.906h-1.173v1.104c0 .67-.044 1.242-.133 1.716-.088.475-.24.903-.453 1.286-.214.382-.522.67-.924.86-.403.192-.902.287-1.5.287-.502 0-.94-.064-1.317-.193a2.497 2.497 0 01-.93-.54 2.52 2.52 0 01-.586-.894 4.946 4.946 0 01-.31-1.187c-.06-.426-.088-.923-.088-1.49v-8.1c0-.69.044-1.281.132-1.77.089-.49.247-.937.476-1.341.229-.405.56-.708.996-.91.435-.203.978-.304 1.627-.304 1.136 0 1.922.34 2.357 1.02.435.681.653 1.72.653 3.118v.938h1.173v-.927c0-.81-.07-1.518-.21-2.124a4.804 4.804 0 00-.68-1.612 2.926 2.926 0 00-1.295-1.059c-.55-.24-1.216-.359-1.998-.359-.694 0-1.3.09-1.82.27-.52.181-.949.427-1.285.74a3.51 3.51 0 00-.813 1.176c-.206.47-.352.97-.437 1.5-.085.53-.127 1.126-.127 1.788v7.758c0 .655.039 1.241.116 1.76.078.519.218 1.02.42 1.501.203.482.469.883.797 1.203.329.32.758.576 1.29.767.531.191 1.15.287 1.86.287.641 0 1.207-.089 1.698-.265zm14.844-.74c.34-.308.615-.696.825-1.164.21-.467.358-.962.443-1.484.084-.522.127-1.11.127-1.766v-8.023c0-.809-.076-1.524-.227-2.146a4.892 4.892 0 00-.736-1.66c-.34-.486-.808-.858-1.406-1.115-.597-.258-1.32-.387-2.169-.387-.686 0-1.289.087-1.81.26-.52.173-.95.41-1.294.712a3.506 3.506 0 00-.841 1.13c-.218.453-.371.939-.46 1.457a10.47 10.47 0 00-.132 1.75v7.989c0 .655.042 1.246.127 1.771.085.527.232 1.025.442 1.496.21.47.484.862.82 1.175.335.313.769.56 1.3.74.531.18 1.147.27 1.848.27.701 0 1.315-.09 1.843-.27.527-.18.96-.425 1.3-.734zm-5.782-1.17a3.82 3.82 0 01-.504-1.29 8.81 8.81 0 01-.144-1.71V18.66c0-.662.048-1.23.144-1.705.096-.475.264-.901.504-1.28.24-.38.579-.664 1.018-.855.439-.192.98-.287 1.621-.287.642 0 1.183.095 1.622.287.438.191.778.476 1.018.855s.407.805.503 1.28a8.75 8.75 0 01.144 1.705v8.442c0 .662-.05 1.232-.15 1.71-.099.479-.267.91-.503 1.292a2.208 2.208 0 01-1.012.866c-.44.195-.98.292-1.622.292-.642 0-1.182-.097-1.621-.292a2.239 2.239 0 01-1.018-.866zm13.538 1.932V16.553l6.231 15.483h.974V13.739h-1.096v15.45l-6.22-15.45h-.984v18.297h1.095zm19.526-.79c.741-.68 1.112-1.682 1.112-3.006 0-.898-.241-1.75-.725-2.555-.483-.805-1.149-1.628-1.997-2.466l-3.31-3.256c-.486-.493-.833-.958-1.04-1.396a3.179 3.179 0 01-.31-1.374c0-.89.266-1.554.797-1.992.531-.437 1.244-.664 2.136-.678h.111c1.018 0 1.758.309 2.219.927.461.617.75 1.589.869 2.913l1.04-.243c-.103-1.655-.51-2.834-1.217-3.537-.709-.702-1.716-1.054-3.022-1.054h-.033c-1.225.008-2.2.337-2.927.988-.727.651-1.09 1.573-1.09 2.765 0 1.258.531 2.416 1.593 3.476l3.354 3.332c.833.825 1.44 1.545 1.82 2.163.38.618.57 1.302.57 2.053 0 1.964-.977 2.946-2.933 2.946-.464 0-.876-.066-1.234-.198a2.562 2.562 0 01-.89-.535 2.91 2.91 0 01-.61-.872c-.169-.357-.3-.727-.392-1.11a12.737 12.737 0 01-.238-1.357l-1.085.342c.266 3.164 1.745 4.746 4.438 4.746 1.255 0 2.253-.34 2.994-1.021zm9.112.79V14.72h3.807v-.982h-8.931v.982h3.884v17.315h1.24zm14.009 0v-.971h-5.169V23.02h4.195v-.96h-4.195V14.72h5.113v-.982h-6.352v18.297h6.408zm11.551 0v-.971h-5.544V13.739h-1.24v18.297h6.784zm10.722 0v-.971h-5.544V13.739h-1.24v18.297h6.784zm7.546-16.807l2.214 10.837h-4.405l2.191-10.837zm-3.353 16.807l.985-5.054h4.759l.951 5.054h1.24l-3.885-18.297h-1.416l-3.852 18.297h1.218zm15.901 0V14.72h3.807v-.982h-8.931v.982h3.884v17.315h1.24zm7.645 0h1.229V13.739h-1.229v18.297zm14.197-.761a3.48 3.48 0 00.825-1.165c.21-.467.358-.962.443-1.484.084-.522.127-1.11.127-1.766v-8.023c0-.809-.076-1.524-.227-2.146a4.889 4.889 0 00-.736-1.66c-.34-.486-.808-.858-1.406-1.115-.597-.258-1.32-.387-2.169-.387-.686 0-1.289.087-1.81.26-.52.173-.951.41-1.294.712a3.506 3.506 0 00-.841 1.13c-.218.453-.37.939-.46 1.457a10.452 10.452 0 00-.132 1.75v7.989c0 .655.042 1.246.127 1.771.085.527.232 1.025.443 1.496.21.47.483.862.819 1.175.335.313.769.56 1.3.74.531.18 1.147.27 1.848.27.701 0 1.315-.09 1.843-.27.527-.18.961-.425 1.3-.734zm-5.782-1.17a3.816 3.816 0 01-.504-1.291 8.824 8.824 0 01-.144-1.71V18.66c0-.662.048-1.23.144-1.705a3.76 3.76 0 01.504-1.28c.24-.38.579-.664 1.018-.855.439-.192.98-.287 1.621-.287.642 0 1.183.095 1.622.287.438.191.778.476 1.018.855s.407.805.503 1.28a8.75 8.75 0 01.144 1.705v8.442c0 .662-.05 1.232-.15 1.71-.099.479-.267.91-.503 1.292a2.21 2.21 0 01-1.012.866c-.44.195-.98.292-1.622.292-.642 0-1.182-.097-1.621-.292a2.239 2.239 0 01-1.018-.866zm13.538 1.93V16.554l6.231 15.483H202V13.739h-1.096v15.45l-6.22-15.45h-.984v18.297h1.095zM20.278 0L0 11.5v23L20.278 46l19.609-11.119v.002l.284-.163.185-.105.201-.115v-.003l.023-.014-.023-.039V11.5L20.278 0zm.199 1.025L38.826 11.43H14.414l6.063-10.405zM1.25 11.703l18.04-10.23-12.03 20.65-6.01-10.42zm26.097.519h12.407v20.872L27.347 12.222zm-13.149 0h11.419l-11.419 6.402v-6.402zm-13.396.305L13.08 33.813H.802V12.527zm20.299 3.137l5.522-3.096L32.2 21.95l-11.099-6.286zM7.795 22.79l5.601-9.613v12.786l-5.6-3.173zm12.652-6.585l4.839 2.74H18.85l1.597-2.74zm-6.092 3.24l4.869-2.73-3.239 5.558-1.63-2.828zm8.852.291h3.17v5.497l-3.17-5.497zm-6.761 3.336l1.943-3.336h3.894l1.826 3.166-1.951 3.35H18.28l-1.834-3.18zm10.733-3.054l5.558 3.148-5.558 9.54V20.02zm-12.98.757l3.158 5.477h-3.159v-5.477zm10.37 2.926l1.638 2.84-4.889 2.74 3.252-5.58zm8.728.093l6.184 10.403-18.287 10.37 12.103-20.773zm-24.943.225l11.118 6.298-5.657 3.172-5.461-9.47zm6.948 3.024h6.395l-1.586 2.723-4.809-2.723zm11.074.313v6.456H14.862l11.514-6.456zM1.792 34.604h24.281l-6.03 10.35-18.25-10.35z"/>
  </g>
</svg>
