<svg width="144" height="37" viewBox="0 0 144 37" fill="none" xmlns="http://www.w3.org/2000/svg">
<path d="M47.8272 15.9083H45.9508C45.8786 15.5208 45.7443 15.1797 45.5478 14.8851C45.3513 14.5906 45.1108 14.3406 44.8261 14.1352C44.5414 13.9298 44.2226 13.7748 43.8698 13.6701C43.521 13.5655 43.1501 13.5132 42.7572 13.5132C42.0475 13.5132 41.412 13.6856 40.8506 14.0306C40.2933 14.3755 39.8523 14.8813 39.5275 15.5479C39.2067 16.2145 39.0463 17.0284 39.0463 17.9896C39.0463 18.9585 39.2067 19.7762 39.5275 20.4429C39.8523 21.1095 40.2953 21.6133 40.8566 21.9544C41.418 22.2954 42.0495 22.466 42.7511 22.466C43.1401 22.466 43.509 22.4156 43.8578 22.3148C44.2106 22.2102 44.5294 22.0571 44.8141 21.8555C45.0987 21.654 45.3393 21.4079 45.5358 21.1172C45.7362 20.8227 45.8746 20.4855 45.9508 20.1057L47.8272 20.1115C47.727 20.6967 47.5325 21.2354 47.2438 21.7276C46.9592 22.216 46.5923 22.6384 46.1432 22.995C45.6982 23.3477 45.1889 23.6209 44.6156 23.8147C44.0422 24.0085 43.4167 24.1054 42.7391 24.1054C41.6726 24.1054 40.7223 23.8612 39.8883 23.3729C39.0544 22.8807 38.3968 22.1772 37.9157 21.2626C37.4385 20.3479 37.2 19.2569 37.2 17.9896C37.2 16.7183 37.4405 15.6273 37.9217 14.7166C38.4028 13.8019 39.0604 13.1004 39.8944 12.6121C40.7283 12.1198 41.6766 11.8737 42.7391 11.8737C43.3927 11.8737 44.0021 11.9648 44.5675 12.147C45.1368 12.3253 45.648 12.5888 46.1011 12.9376C46.5542 13.2826 46.9291 13.705 47.2258 14.205C47.5225 14.701 47.723 15.2688 47.8272 15.9083Z" fill="white"/>
<path d="M53.9673 24.1228C53.1012 24.1228 52.3454 23.931 51.6999 23.5473C51.0543 23.1636 50.5532 22.6268 50.1963 21.9369C49.8395 21.2471 49.661 20.4409 49.661 19.5185C49.661 18.5922 49.8395 17.7822 50.1963 17.0885C50.5532 16.3947 51.0543 15.856 51.6999 15.4723C52.3454 15.0886 53.1012 14.8968 53.9673 14.8968C54.8333 14.8968 55.5891 15.0886 56.2347 15.4723C56.8802 15.856 57.3814 16.3947 57.7382 17.0885C58.0951 17.7822 58.2735 18.5922 58.2735 19.5185C58.2735 20.4409 58.0951 21.2471 57.7382 21.9369C57.3814 22.6268 56.8802 23.1636 56.2347 23.5473C55.5891 23.931 54.8333 24.1228 53.9673 24.1228ZM53.9733 22.6636C54.5346 22.6636 54.9997 22.5202 55.3686 22.2334C55.7375 21.9466 56.0101 21.5649 56.1865 21.0882C56.367 20.6115 56.4572 20.0863 56.4572 19.5127C56.4572 18.943 56.367 18.4198 56.1865 17.9431C56.0101 17.4625 55.7375 17.0768 55.3686 16.7862C54.9997 16.4955 54.5346 16.3501 53.9733 16.3501C53.4079 16.3501 52.9388 16.4955 52.5659 16.7862C52.1971 17.0768 51.9224 17.4625 51.742 17.9431C51.5656 18.4198 51.4774 18.943 51.4774 19.5127C51.4774 20.0863 51.5656 20.6115 51.742 21.0882C51.9224 21.5649 52.1971 21.9466 52.5659 22.2334C52.9388 22.5202 53.4079 22.6636 53.9733 22.6636Z" fill="white"/>
<path d="M62.2484 18.6407V23.9426H60.4501V15.013H62.1763V16.4664H62.2905C62.503 15.9936 62.8358 15.6138 63.2889 15.327C63.746 15.0402 64.3214 14.8968 65.015 14.8968C65.6445 14.8968 66.1958 15.0247 66.6689 15.2805C67.1421 15.5324 67.5089 15.9083 67.7695 16.4083C68.0302 16.9082 68.1605 17.5264 68.1605 18.2628V23.9426H66.3622V18.4721C66.3622 17.8248 66.1878 17.3191 65.839 16.9548C65.4901 16.5866 65.011 16.4025 64.4015 16.4025C63.9845 16.4025 63.6137 16.4897 63.2889 16.6641C62.9681 16.8385 62.7135 17.0943 62.5251 17.4315C62.3406 17.7648 62.2484 18.1678 62.2484 18.6407Z" fill="white"/>
<path d="M77.664 17.1931L76.0342 17.4722C75.966 17.2706 75.8577 17.0788 75.7094 16.8966C75.565 16.7145 75.3686 16.5652 75.12 16.449C74.8714 16.3327 74.5607 16.2746 74.1878 16.2746C73.6786 16.2746 73.2535 16.385 72.9127 16.6059C72.5719 16.823 72.4015 17.104 72.4015 17.4489C72.4015 17.7473 72.5158 17.9876 72.7443 18.1698C72.9729 18.3519 73.3418 18.5011 73.851 18.6174L75.3185 18.943C76.1685 19.1329 76.802 19.4255 77.219 19.8208C77.636 20.2161 77.8445 20.7297 77.8445 21.3614C77.8445 21.8962 77.6841 22.3729 77.3633 22.7915C77.0466 23.2062 76.6035 23.5318 76.0342 23.7682C75.4688 24.0046 74.8133 24.1228 74.0675 24.1228C73.033 24.1228 72.189 23.9097 71.5355 23.4833C70.8819 23.0531 70.481 22.4427 70.3326 21.6521L72.0707 21.3963C72.179 21.8342 72.4015 22.1656 72.7383 22.3904C73.0751 22.6113 73.5142 22.7218 74.0555 22.7218C74.6449 22.7218 75.116 22.6036 75.4688 22.3671C75.8216 22.1268 75.9981 21.8342 75.9981 21.4893C75.9981 21.2102 75.8898 20.9758 75.6733 20.7859C75.4608 20.596 75.134 20.4526 74.693 20.3557L73.1292 20.0243C72.2672 19.8344 71.6297 19.5321 71.2167 19.1174C70.8077 18.7027 70.6032 18.1775 70.6032 17.5419C70.6032 17.0148 70.7556 16.5536 71.0603 16.1583C71.3651 15.763 71.7861 15.4549 72.3233 15.234C72.8606 15.0092 73.4761 14.8968 74.1697 14.8968C75.1681 14.8968 75.954 15.1061 76.5273 15.5246C77.1007 15.9393 77.4796 16.4955 77.664 17.1931Z" fill="white"/>
<path d="M84.3033 15.013V16.4083H79.2573V15.013H84.3033ZM80.6105 12.8737H82.4088V21.3207C82.4088 21.6579 82.4609 21.9117 82.5651 22.0823C82.6694 22.2489 82.8037 22.3633 82.9681 22.4253C83.1365 22.4834 83.3189 22.5125 83.5154 22.5125C83.6597 22.5125 83.786 22.5028 83.8943 22.4834C84.0026 22.464 84.0868 22.4485 84.1469 22.4369L84.4717 23.8728C84.3674 23.9116 84.2191 23.9503 84.0266 23.9891C83.8342 24.0317 83.5936 24.055 83.3049 24.0589C82.8318 24.0666 82.3907 23.9852 81.9818 23.8147C81.5728 23.6442 81.242 23.3806 80.9894 23.0241C80.7368 22.6675 80.6105 22.2199 80.6105 21.6811V12.8737Z" fill="white"/>
<path d="M90.3441 24.1228C89.4339 24.1228 88.6501 23.9348 87.9925 23.5589C87.339 23.1791 86.8337 22.6462 86.4769 21.9602C86.1241 21.2703 85.9476 20.4622 85.9476 19.536C85.9476 18.6213 86.1241 17.8152 86.4769 17.1175C86.8337 16.4199 87.3309 15.8754 87.9684 15.4839C88.61 15.0925 89.3598 14.8968 90.2178 14.8968C90.739 14.8968 91.2442 14.9801 91.7334 15.1468C92.2226 15.3134 92.6616 15.575 93.0505 15.9316C93.4395 16.2881 93.7462 16.7513 93.9707 17.321C94.1953 17.8869 94.3075 18.5748 94.3075 19.3848V20.001H86.9641V18.6988H92.5453C92.5453 18.2415 92.4491 17.8365 92.2566 17.4838C92.0642 17.1272 91.7935 16.8462 91.4447 16.6408C91.0999 16.4354 90.6949 16.3327 90.2298 16.3327C89.7246 16.3327 89.2836 16.4529 88.9067 16.6931C88.5338 16.9296 88.2451 17.2396 88.0406 17.6233C87.8401 18.0031 87.7399 18.4159 87.7399 18.8616V19.879C87.7399 20.4758 87.8482 20.9835 88.0647 21.4021C88.2852 21.8207 88.5919 22.1404 88.9849 22.3613C89.3778 22.5784 89.8369 22.6869 90.3621 22.6869C90.7029 22.6869 91.0137 22.6404 91.2944 22.5474C91.575 22.4505 91.8176 22.3071 92.0221 22.1172C92.2266 21.9272 92.3829 21.6928 92.4912 21.4137L94.1932 21.7102C94.0569 22.1947 93.8123 22.6191 93.4595 22.9834C93.1107 23.3438 92.6716 23.6248 92.1424 23.8263C91.6171 24.024 91.0177 24.1228 90.3441 24.1228Z" fill="white"/>
<path d="M98.2704 12.0365V23.9426H96.4721V12.0365H98.2704Z" fill="white"/>
<path d="M102.657 12.0365V23.9426H100.859V12.0365H102.657Z" fill="white"/>
<path d="M107.934 24.1403C107.349 24.1403 106.82 24.0356 106.347 23.8263C105.873 23.6132 105.498 23.305 105.222 22.902C104.949 22.4989 104.813 22.0048 104.813 21.4195C104.813 20.9157 104.913 20.501 105.114 20.1754C105.314 19.8499 105.585 19.5922 105.926 19.4022C106.266 19.2123 106.647 19.0689 107.068 18.972C107.489 18.8752 107.918 18.8015 108.355 18.7511C108.909 18.6891 109.358 18.6387 109.702 18.6C110.047 18.5573 110.298 18.4895 110.454 18.3965C110.611 18.3035 110.689 18.1523 110.689 17.9431V17.9024C110.689 17.3946 110.54 17.0013 110.244 16.7222C109.951 16.4432 109.514 16.3036 108.933 16.3036C108.327 16.3036 107.85 16.4335 107.501 16.6931C107.156 16.9489 106.918 17.2338 106.786 17.5477L105.096 17.1757C105.296 16.6331 105.589 16.1951 105.974 15.8618C106.363 15.5246 106.81 15.2805 107.315 15.1293C107.82 14.9743 108.351 14.8968 108.909 14.8968C109.277 14.8968 109.668 14.9394 110.081 15.0247C110.498 15.1061 110.887 15.2572 111.248 15.4781C111.613 15.699 111.912 16.0149 112.144 16.4257C112.377 16.8327 112.493 17.3617 112.493 18.0128V23.9426H110.737V22.7218H110.665C110.549 22.9466 110.374 23.1675 110.142 23.3845C109.909 23.6015 109.61 23.7818 109.245 23.9252C108.881 24.0686 108.443 24.1403 107.934 24.1403ZM108.325 22.745C108.822 22.745 109.247 22.6501 109.6 22.4602C109.957 22.2702 110.228 22.0222 110.412 21.716C110.601 21.406 110.695 21.0746 110.695 20.7219V19.5708C110.631 19.6328 110.506 19.691 110.322 19.7452C110.142 19.7956 109.935 19.8402 109.702 19.879C109.47 19.9138 109.243 19.9468 109.023 19.9778C108.802 20.0049 108.618 20.0282 108.47 20.0475C108.121 20.0902 107.802 20.1619 107.513 20.2626C107.229 20.3634 107 20.5087 106.828 20.6987C106.659 20.8847 106.575 21.1327 106.575 21.4428C106.575 21.873 106.739 22.1985 107.068 22.4195C107.397 22.6365 107.816 22.745 108.325 22.745Z" fill="white"/>
<path d="M119.37 15.013V16.4083H114.324V15.013H119.37ZM115.677 12.8737H117.475V21.3207C117.475 21.6579 117.528 21.9117 117.632 22.0823C117.736 22.2489 117.87 22.3633 118.035 22.4253C118.203 22.4834 118.386 22.5125 118.582 22.5125C118.726 22.5125 118.853 22.5028 118.961 22.4834C119.069 22.464 119.153 22.4485 119.214 22.4369L119.538 23.8728C119.434 23.9116 119.286 23.9503 119.093 23.9891C118.901 24.0317 118.66 24.055 118.372 24.0589C117.898 24.0666 117.457 23.9852 117.048 23.8147C116.639 23.6442 116.309 23.3806 116.056 23.0241C115.803 22.6675 115.677 22.2199 115.677 21.6811V12.8737Z" fill="white"/>
<path d="M121.529 23.9426V15.013H123.327V23.9426H121.529ZM122.437 13.6352C122.124 13.6352 121.855 13.5345 121.631 13.3329C121.41 13.1275 121.3 12.8834 121.3 12.6004C121.3 12.3136 121.41 12.0695 121.631 11.8679C121.855 11.6625 122.124 11.5598 122.437 11.5598C122.749 11.5598 123.016 11.6625 123.237 11.8679C123.461 12.0695 123.573 12.3136 123.573 12.6004C123.573 12.8834 123.461 13.1275 123.237 13.3329C123.016 13.5345 122.749 13.6352 122.437 13.6352Z" fill="white"/>
<path d="M129.807 24.1228C128.941 24.1228 128.185 23.931 127.539 23.5473C126.894 23.1636 126.393 22.6268 126.036 21.9369C125.679 21.2471 125.5 20.4409 125.5 19.5185C125.5 18.5922 125.679 17.7822 126.036 17.0885C126.393 16.3947 126.894 15.856 127.539 15.4723C128.185 15.0886 128.941 14.8968 129.807 14.8968C130.673 14.8968 131.429 15.0886 132.074 15.4723C132.72 15.856 133.221 16.3947 133.578 17.0885C133.934 17.7822 134.113 18.5922 134.113 19.5185C134.113 20.4409 133.934 21.2471 133.578 21.9369C133.221 22.6268 132.72 23.1636 132.074 23.5473C131.429 23.931 130.673 24.1228 129.807 24.1228ZM129.813 22.6636C130.374 22.6636 130.839 22.5202 131.208 22.2334C131.577 21.9466 131.85 21.5649 132.026 21.0882C132.206 20.6115 132.297 20.0863 132.297 19.5127C132.297 18.943 132.206 18.4198 132.026 17.9431C131.85 17.4625 131.577 17.0768 131.208 16.7862C130.839 16.4955 130.374 16.3501 129.813 16.3501C129.247 16.3501 128.778 16.4955 128.405 16.7862C128.036 17.0768 127.762 17.4625 127.581 17.9431C127.405 18.4198 127.317 18.943 127.317 19.5127C127.317 20.0863 127.405 20.6115 127.581 21.0882C127.762 21.5649 128.036 21.9466 128.405 22.2334C128.778 22.5202 129.247 22.6636 129.813 22.6636Z" fill="white"/>
<path d="M138.088 18.6407V23.9426H136.29V15.013H138.016V16.4664H138.13C138.342 15.9936 138.675 15.6138 139.128 15.327C139.585 15.0402 140.161 14.8968 140.854 14.8968C141.484 14.8968 142.035 15.0247 142.508 15.2805C142.981 15.5324 143.348 15.9083 143.609 16.4083C143.87 16.9082 144 17.5264 144 18.2628V23.9426H142.202V18.4721C142.202 17.8248 142.027 17.3191 141.678 16.9548C141.33 16.5866 140.85 16.4025 140.241 16.4025C139.824 16.4025 139.453 16.4897 139.128 16.6641C138.808 16.8385 138.553 17.0943 138.364 17.4315C138.18 17.7648 138.088 18.1678 138.088 18.6407Z" fill="white"/>
<path d="M31.1968 27.0349V9.01172L25.9978 18.0233L31.1968 27.0349Z" fill="url(#paint0_linear)"/>
<path d="M0.00289741 9.01169L0.00289774 27.0349L5.20191 18.0233L0.00289741 9.01169Z" fill="url(#paint1_linear)"/>
<path d="M15.6001 7.38984e-05L0.003035 9.01169L10.401 9.01169L15.6001 7.38984e-05Z" fill="white"/>
<path d="M15.5999 36.0465L31.1969 27.0349L20.7989 27.0349L15.5999 36.0465Z" fill="url(#paint2_linear)"/>
<path d="M15.5999 7.55502e-05L31.1969 9.0117L20.7989 9.01169L15.5999 7.55502e-05Z" fill="white"/>
<path d="M15.5999 36.0464L0.00280557 27.0348L10.4066 27.0348L15.5999 36.0464Z" fill="white"/>
<path d="M5.20169 18.0232L10.4007 27.0348H0.00268555L5.20169 18.0232Z" fill="url(#paint3_linear)"/>
<path d="M15.5999 18.0233L10.4009 21.0227L10.4009 15.0239L15.5999 18.0233Z" fill="url(#paint4_linear)"/>
<path d="M20.7988 15.0238L15.5998 18.0232L15.5998 12.0244L20.7988 15.0238Z" fill="white"/>
<path d="M10.4009 21.0226L15.5999 18.0232L15.5999 24.022L10.4009 21.0226Z" fill="white"/>
<path d="M20.7988 21.0226L15.5998 24.022L15.5998 18.0232L20.7988 21.0226Z" fill="white"/>
<path d="M10.4009 15.0238L15.5999 12.0244L15.5999 18.0232L10.4009 15.0238Z" fill="white"/>
<path d="M15.5999 18.0233L20.7988 15.0239L20.7988 21.0227L15.5999 18.0233Z" fill="white"/>
<path d="M25.9983 18.0232L20.7993 9.01158L31.1973 9.01158L25.9983 18.0232Z" fill="url(#paint5_linear)"/>
<path d="M25.9978 18.0232L31.1968 27.0348H20.7988L25.9978 18.0232Z" fill="url(#paint6_linear)"/>
<path d="M5.20187 18.0232L0.00286372 9.01158L10.4009 9.01158L5.20187 18.0232Z" fill="white"/>
<path d="M15.5998 36.0464L10.4008 27.0348L20.7988 27.0348L15.5998 36.0464Z" fill="white"/>
<path d="M15.5999 9.09024e-07L20.7989 9.01162L10.4009 9.01161L15.5999 9.09024e-07Z" fill="white"/>
<defs>
<linearGradient id="paint0_linear" x1="20.8132" y1="9.01172" x2="31.2112" y2="27.0523" gradientUnits="userSpaceOnUse">
<stop stop-color="white" stop-opacity="0.25"/>
<stop offset="1" stop-color="white"/>
</linearGradient>
<linearGradient id="paint1_linear" x1="-1.33678e-05" y1="27.0349" x2="0.00289838" y2="9.01169" gradientUnits="userSpaceOnUse">
<stop stop-color="white"/>
<stop offset="1" stop-color="white" stop-opacity="0.25"/>
</linearGradient>
<linearGradient id="paint2_linear" x1="15.5999" y1="36.0465" x2="25.995" y2="18.0233" gradientUnits="userSpaceOnUse">
<stop stop-color="white"/>
<stop offset="1" stop-color="white" stop-opacity="0.25"/>
</linearGradient>
<linearGradient id="paint3_linear" x1="0.00268505" y1="9.02891" x2="-0.000226224" y2="27.0348" gradientUnits="userSpaceOnUse">
<stop stop-color="white" stop-opacity="0.25"/>
<stop offset="1" stop-color="white"/>
</linearGradient>
<linearGradient id="paint4_linear" x1="10.4008" y1="15.0079" x2="13.0003" y2="19.2364" gradientUnits="userSpaceOnUse">
<stop offset="0.113338" stop-color="white" stop-opacity="0.25"/>
<stop offset="1" stop-color="white"/>
</linearGradient>
<linearGradient id="paint5_linear" x1="20.7963" y1="9.01158" x2="31.1944" y2="27.0348" gradientUnits="userSpaceOnUse">
<stop stop-color="white"/>
<stop offset="1" stop-color="white" stop-opacity="0.25"/>
</linearGradient>
<linearGradient id="paint6_linear" x1="15.5969" y1="36.0464" x2="25.9978" y2="18.0232" gradientUnits="userSpaceOnUse">
<stop stop-color="white"/>
<stop offset="1" stop-color="white" stop-opacity="0.25"/>
</linearGradient>
</defs>
</svg>
